<?xml version="1.0" encoding="UTF-8"?><svg id="Layer_1" xmlns="http://www.w3.org/2000/svg" viewBox="0 0 159.74 159.74"><defs><style>.cls-1{fill:#fafcff;}</style></defs><path class="cls-1" d="M79.87,0C35.76,0,0,35.76,0,79.87c0,6.71,.83,13.22,2.39,19.45h30.08l1.5-8.87,13.91,18.41-20.07,18.08,1.63-9.67H9.28c13.41,25.27,39.99,42.48,70.59,42.48,44.11,0,79.87-35.76,79.87-79.87S123.98,0,79.87,0Zm31.86,117.26h-20.97l6.61-39.8c.67-4.04,1.46-8.07,1.79-8.86,.56-2.69,1.23-5.27,1.91-7.96,.11-.45,.45-2.02,.9-4.26-.45,1.12-.9,2.24-1.01,2.58-.67,1.68-1.35,3.36-1.91,5.16-1.46,3.93-2.13,5.49-4.04,9.64l-19.28,43.5h-13.45l-5.16-43.5c-.11-.9-.45-4.48-.67-7.74l-.22-1.79-.22-5.49c0-.45-.11-1.57-.22-3.25-1.79,16.48-2.02,18.16-3.48,26.68l-3.04,18.3-13.83-18.3,6.66-39.69h30.05l3.92,33.07,.34,2.24,.22,2.02c0,.22,.11,.78,.34,1.46,.78-2.35,1.12-3.14,2.24-5.72l14.8-33.07h30.27l-12.56,74.78Z"/></svg>