<?xml version="1.0" encoding="UTF-8"?>
<svg xmlns="http://www.w3.org/2000/svg" id="Layer_1" data-name="Layer 1" version="1.1" viewBox="0 0 475 58">
  <defs>
    <style>
      .cls-1 {
        fill: #fafcff;
      }

      .cls-1, .cls-2 {
        stroke-width: 0px;
      }

      .cls-2 {
        fill: #f27226;
      }
    </style>
  </defs>
  <path class="cls-1" d="M8.8,1.2h16.7c9.1,0,13.6,1.4,17.9,5.5,4.2,4,6.3,9.7,6.3,17s-4.3,19.1-11.7,24c-4.7,3.1-8.3,3.8-19.4,3.8H.3L8.8,1.2ZM20.6,40.2c4.9,0,7.5-.8,9.6-2.9,2.8-2.9,4.5-8.4,4.5-14.2s-2.9-11.1-8.4-11.1h-4.3l-4.8,28.2h3.4Z"></path>
  <path class="cls-1" d="M66.3,51.5h-14.2L60.5,1.2h14.2s-8.4,50.3-8.4,50.3Z"></path>
  <path class="cls-1" d="M112,51.5h-37L83.4,1.2h36l-1.8,11h-21.6l-1.3,7.9h18.1l-1.8,10.9h-18.1l-1.5,8.9h22.5l-2,11.5h0Z"></path>
  <path class="cls-1" d="M151.5,16.2c-.9-3.1-3.8-4.9-7.7-4.9s-4.9,1.3-4.9,3.3,1,2.5,4.7,3.8c6.9,2.5,11.3,4.3,13,5.5,3.9,2.8,5.8,6.3,5.8,10.8,0,10.4-9,17.5-22.2,17.5s-12.4-1.7-17-4.9c-3.1-2.3-4.8-4.6-6.6-9.1l14.5-2.8c1.5,3.7,4.3,5.3,9.4,5.3s5.8-1.4,5.8-3.8-.3-1.4-.8-1.9c-.5-.5-1.1-.8-1.7-1.1l-9.9-3.6c-7.6-2.8-11.2-7.1-11.2-13.6s2.4-9.9,6.4-12.7c3.5-2.5,8-3.7,13.9-3.7s11.1,1.4,15.1,4.1c3.3,2.3,4.9,4.4,6.3,8.4l-13,3.3h0Z"></path>
  <path class="cls-1" d="M202.2,51.5h-37L173.6,1.2h36l-1.8,11h-21.6l-1.3,7.9h18.1l-1.8,10.9h-18.1l-1.5,8.9h22.5l-2,11.5h0Z"></path>
  <path class="cls-1" d="M247.2,51.5h-38.8L216.8,1.2h15.2l-6.4,38.2h23.6l1-6,9.4,12.4-13.5,12.2,1.1-6.5h0Z"></path>
  <path class="cls-2" d="M302.5,51.5h-14.1l4.5-26.8c.5-2.7,1-5.4,1.2-6,.4-1.8.8-3.5,1.3-5.4,0-.3.3-1.4.6-2.9-.3.8-.6,1.5-.7,1.7-.5,1.1-.9,2.3-1.3,3.5-1,2.6-1.4,3.7-2.7,6.5l-13,29.2h-9l-3.5-29.2c0-.6-.3-3-.5-5.2v-1.2c-.1,0-.3-3.7-.3-3.7,0-.3,0-1.1-.1-2.2-1.2,11.1-1.4,12.2-2.3,17.9l-2,12.3-9.3-12.3,4.5-26.7h20.2l2.6,22.2.2,1.5v1.4c.1.1.2.5.4,1,.5-1.6.8-2.1,1.5-3.8l10-22.2h20.4l-8.4,50.3h0Z"></path>
  <path class="cls-2" d="M324,41.2l-4.7,10.2h-12.4L330.1,1.2h15.8l7.8,50.3h-14.9l-1.4-10.2h-13.5ZM334.5,16.3l-6.6,14.5h8.7l-2-14.5Z"></path>
  <path class="cls-2" d="M376.4,51.5h-14.6l6.6-38.9h-10.8l2-11.5h36.3l-1.9,11.5h-11.1l-6.5,38.9h0Z"></path>
  <path class="cls-2" d="M406.1,51.5h-14.2l8.4-50.3h14.2l-8.4,50.3Z"></path>
  <path class="cls-2" d="M459.8,33.8c-1.7,5.6-3.3,8.5-6.4,11.8-4.5,4.8-9.4,6.9-16,6.9-12.5,0-20.7-9-20.7-22.8s1.4-11.5,4.2-16.6C425.5,4.5,433,0,442.4,0s11.8,2.3,15.5,6.9c2.9,3.6,4,6.8,4.2,12.7l-14.2,1.1c0-3.1-.2-4.3-.9-5.9-.9-2.1-2.7-3.3-5.1-3.3s-5.5,2-7.2,6.5c-1.3,3.5-2.6,11.1-2.6,14.8s2,7.8,6.1,7.8,6-2.3,7.9-8.5l13.5,1.7h0Z"></path>
  <path class="cls-2" d="M474.7,46.7c0,3.5-2.7,6.2-6.2,6.2s-6.2-2.7-6.2-6.2,2.8-6.1,6.2-6.1c3.5,0,6.2,2.7,6.2,6.1ZM463.7,46.7c0,2.7,2,4.9,4.8,4.9s4.6-2.2,4.6-4.8-2-4.9-4.7-4.9-4.7,2.2-4.7,4.8ZM467.5,49.9h-1.4v-6.1c.6-.1,1.4-.2,2.3-.2s1.7.2,2.1.4c.3.2.6.7.6,1.4s-.5,1.2-1.2,1.4h0c.6.3.9.7,1.1,1.5.2.9.3,1.3.4,1.5h-1.5c-.2-.2-.3-.8-.5-1.5-.1-.7-.5-1-1.2-1h-.7v2.4h0ZM467.5,46.4h.7c.8,0,1.4-.2,1.4-.9s-.4-.9-1.3-.9-.6,0-.8,0v1.7Z"></path>
</svg>
